<?xml version="1.0" encoding="utf-8"?>
<!-- Generator: Adobe Illustrator 24.3.0, SVG Export Plug-In . SVG Version: 6.00 Build 0)  -->
<svg version="1.1" xmlns="http://www.w3.org/2000/svg" xmlns:xlink="http://www.w3.org/1999/xlink" x="0px" y="0px"
	 viewBox="0 0 130 170" style="enable-background:new 0 0 130 170;" xml:space="preserve">
<style type="text/css">
	.st0{display:none;}
	.st1{display:inline;fill:#58595B;stroke:#000000;stroke-miterlimit:10;}
	.st2{fill:#C4772A;}
	.st3{fill:#737277;}
	.st4{fill:none;stroke:#F2F2F2;stroke-width:2;stroke-miterlimit:10;}
	.st5{fill:none;stroke:#F2F2F2;stroke-width:2.25;stroke-miterlimit:10;}
	.st6{fill:#F2F2F2;}
	.st7{fill:none;stroke:#FFFFFF;stroke-miterlimit:10;}
	.st8{fill:#FFFFFF;}
	.st9{fill:none;}
	.st10{font-family:'Arial-BoldMT';}
	.st11{font-size:18.8021px;}
</style>
<g id="Layer_2" class="st0">
	<rect class="st1" width="130" height="170"/>
</g>
<g id="Layer_1">
	<g id="bell">
		<path class="st2" d="M76.35,49.08c-12.59,1.93-23.12,0-23.12,0l3.12-20.63c1.05-2.65,3.45-2.61,3.45-2.61h10.11
			c0,0,2.23,0.3,3.16,2.23L76.35,49.08z"/>
		<path class="st2" d="M61.11,24.63h-1.73c0,0,0.06-3.41,2.42-3.41h5.94c0,0,2.19-0.17,2.38,3.31h-1.73c0,0,0.17-1.73-1.39-1.73
			s-4.78,0-4.78,0S61.06,22.7,61.11,24.63z"/>
		<path class="st2" d="M62.87,52.15c0,0-0.78,0.4-3.05,0.47c0,0-0.13-1.03,1.12-1.51h7.79c0,0,1.35,0.63,1.07,1.51
			c0,0-2.02,0.13-2.92-0.55c0,0-0.75,1.16-2.05,1.45C64.83,53.52,63.66,53.56,62.87,52.15z"/>
		<path class="st2" d="M60.2,53.29c0,0,1.79-0.02,2.5-0.42c0,0,0.35,0.57,0.93,0.82c0,0-0.74,2.04-2.69,2.02
			c0,0-0.48-0.24-0.74-0.84C60.2,54.87,59.89,54.36,60.2,53.29z"/>
		<path class="st2" d="M69.3,53.29c0,0-1.69-0.02-2.37-0.42c0,0-0.33,0.57-0.88,0.82c0,0,0.7,2.04,2.54,2.02c0,0,0.46-0.24,0.7-0.84
			C69.3,54.87,69.6,54.36,69.3,53.29z"/>
		<path class="st2" d="M64.19,54.04c0,0,0.71,0.11,1.17,0c0,0,0.28,0.93,0.87,1.34c0,0-0.44,1.53-1.43,1.56c0,0-1.06-0.03-1.42-1.56
			C63.37,55.38,63.99,54.83,64.19,54.04z"/>
		<path class="st2" d="M62.76,55.82c0,0,0.13,1.07,1.2,1.43c0,0-0.6,1.1-1.55,1.18c0,0-0.86-0.37-1.06-1.31c0,0-0.14-0.56,0.05-0.78
			C61.4,56.34,62.2,56.39,62.76,55.82z"/>
		<path class="st2" d="M66.82,55.82c0,0-0.12,1.07-1.16,1.43c0,0,0.58,1.1,1.5,1.18c0,0,0.84-0.37,1.03-1.31
			c0,0,0.13-0.56-0.05-0.78C68.14,56.34,67.36,56.39,66.82,55.82z"/>
		<path class="st2" d="M64.8,57.64c0,0-0.45,0.55-1.53,1.07c0,0,0.26,1.01,1.53,1.29c0,0,1.05-0.18,1.48-1.18
			C66.28,58.82,65.12,58.21,64.8,57.64z"/>
	</g>
	<g id="shine">
		<g>
			<polygon class="st3" points="52.38,28.9 42.58,22.04 52.91,28.07 			"/>
		</g>
		<g>
			<polygon class="st3" points="49.56,34.14 32.98,28.91 49.83,33.19 			"/>
		</g>
		<g>
			<polygon class="st3" points="48.05,40.31 26.83,39.82 48.05,39.32 			"/>
		</g>
		<g>
			<polygon class="st3" points="47.94,46.94 25.57,52.87 47.67,45.99 			"/>
		</g>
		<g>
			<polygon class="st3" points="49.66,53.85 38.83,59.99 49.14,53.01 			"/>
		</g>
		<g>
			<polygon class="st3" points="76.51,28.07 87.17,21.88 77.04,28.91 			"/>
		</g>
		<g>
			<polygon class="st3" points="79.54,33.27 97.15,28.74 79.82,34.22 			"/>
		</g>
		<g>
			<polygon class="st3" points="81.4,39.24 102.75,39.73 81.4,40.23 			"/>
		</g>
		<g>
			<polygon class="st3" points="81.88,45.87 103.76,52.87 81.6,46.82 			"/>
		</g>
		<g>
			<polygon class="st3" points="80.4,53.01 90.58,59.81 79.88,53.85 			"/>
		</g>
	</g>
	<g id="house_top">
		<polyline class="st4" points="11.19,23.19 64.92,8.87 119.54,23.19 		"/>
	</g>
	<g id="house_bottom">
		<circle class="st5" cx="65.01" cy="129.94" r="1.02"/>
		<g>
			<polygon class="st6" points="59.77,131.13 11.35,129.94 59.77,128.75 			"/>
		</g>
		<g>
			<polygon class="st6" points="70.16,128.75 118.58,129.94 70.16,131.13 			"/>
		</g>
	</g>
	<g id="lepage_1_">
		<polygon class="st7" points="26.62,67.04 31.32,65.64 31.32,83.95 43.93,83.95 43.93,88.27 26.62,88.27 		"/>
		<polygon class="st7" points="43.93,81.55 34.12,81.55 34.12,67.49 43.93,67.49 43.93,70.63 37.43,70.63 37.43,72.92 43.93,72.92 
			43.93,75.94 37.37,75.94 37.37,78.3 43.93,78.3 		"/>
		<path class="st7" d="M46.39,88.27"/>
		<path class="st7" d="M46.39,67.49h6.72c0,0,4.03-0.34,5.1,4.7v4.37c0,0-0.39,4.2-4.82,4.99h-2.8v6.72h-4.2L46.39,67.49
			L46.39,67.49z"/>
		<path class="st7" d="M54.6,76.28v-2.91c-0.2-3.19-4.06-2.66-4.06-2.66v7.34C50.54,78.05,53.98,78.41,54.6,76.28z"/>
		<polygon class="st7" points="57.98,81.55 62.18,81.55 62.94,79.31 68.28,79.31 69.11,81.55 73.4,81.55 68.11,67.48 63.4,67.48 		
			"/>
		<polygon class="st7" points="64.2,75.94 67.27,75.94 66.02,71.62 65.53,71.62 		"/>
		<path class="st7" d="M83.06,72.04h3.74c0,0-0.34-4.41-5.25-5.12h-2.27c0,0-4.97,0.16-6.02,5.24l0.07,3.88c0,0,0.01,4.84,5.39,5.68
			c0,0,2.03,0.31,4.08,0.14c1.96-0.16,3.75-0.41,4-0.74v-7.06h-5.96v2.52h2.44v1.85c0,0-2.27,1.09-4.16,0
			c-1.89-1.09-1.93-2.48-1.93-2.48v-3.19c0,0,0.59-2.48,2.44-2.52h1.64C81.26,70.23,82.64,70.36,83.06,72.04z"/>
		<polygon class="st7" points="98.5,81.55 88.7,81.55 88.7,67.49 98.5,67.49 98.5,70.63 92.01,70.63 92.01,72.92 98.5,72.92 
			98.5,75.94 91.95,75.94 91.95,78.3 98.5,78.3 		"/>
	</g>
	<g id="cowbell_1_">
		<path class="st7" d="M20.93,111.31c-1.81,0-2.08,1.61-2.08,1.61l0.62,6.01c0.75,1.47,1.85,1.23,1.85,1.23l2.32-0.2l2.32-0.99
			l-0.92,3.93l-5.71,0.62l-3.45-2.7l-1.06-8.82l2.91-3.28l5.57-0.62l1.5,3.56l-1.75-0.44L20.93,111.31z"/>
		<polygon class="st7" points="29.2,119.68 28.31,110.31 30.98,107.48 36.93,107.03 40.07,109.5 40.69,118.72 37.95,121.76 
			32.17,122.21 		"/>
		<polygon class="st7" points="41.95,106.69 46.6,106.45 46.6,108.05 48.45,113.56 50.46,106.21 53.5,106.21 55.97,113.56 
			57.64,107.68 57.16,106.04 61.85,106.04 60.92,107.92 57.3,120.91 54.77,120.91 52.14,112.5 50.02,121.12 47.59,121.12 
			42.92,108.26 		"/>
		<polygon class="st7" points="64.61,107.65 64.61,119.2 64.2,120.77 73.23,120.77 75.72,118.52 75.72,114.55 73.94,112.87 
			75.72,111.58 75.72,108.54 73.3,106.04 64.03,106.04 		"/>
		<path class="st7" d="M68.17,111.41v-2.74h2.94c0,0,2.32,1.26,0,2.74H68.17z"/>
		<path class="st7" d="M68.17,117.83v-3.51h2.94c0,0,2.32,1.62,0,3.51H68.17z"/>
		<path class="st7" d="M36.79,117.66c0,0,0.14,1.06-1.09,1.16l-1.72,0.06c0,0-0.74,0.07-1.22-0.95l-0.52-6.89
			c0,0,0.16-1.07,1.25-1.07l1.87-0.11c0,0,0.82,0.11,0.91,0.98C36.35,111.71,36.79,117.66,36.79,117.66z"/>
		<polygon class="st7" points="79.62,106.24 88.75,106.69 89.81,110.21 87.72,109.43 83.58,109.25 83.41,111.78 85.91,111.78 
			87.07,111.41 87.07,115.37 84.99,114.62 83.31,114.59 83.25,118.18 87.24,118.41 89.56,117.83 88.2,121.46 79.14,121.12 
			79.52,119.64 80.03,107.99 		"/>
		<polygon class="st7" points="93.21,106.96 97.84,107.27 97.15,109.46 96.37,118.86 100.26,119.27 102.35,118.69 100.71,122.41 
			91.96,121.73 92.61,120.4 93.46,108.4 		"/>
		<polygon class="st7" points="106.08,107.87 110.69,108.32 109.93,110.49 108.84,119.86 112.72,120.39 114.83,119.88 
			113.06,123.55 104.34,122.58 105.03,121.27 106.28,109.31 		"/>
	</g>
	<g id="Layer_11">
		<g>
			<g>
				<path class="st8" d="M16.5,135.92c0.44,0.24,0.87,0.47,1.31,0.69c-1.24,1.96-2.48,3.92-3.71,5.88
					c-0.47-0.25-0.95-0.49-1.42-0.75C13.95,139.81,15.22,137.86,16.5,135.92z M13.97,141.02c0.79,0.42,1.59,0.83,2.38,1.22
					c0.32,0.16,0.62,0.23,0.86,0.18c0.26-0.04,0.44-0.17,0.57-0.4l0.01-0.01c0.09-0.15,0.13-0.3,0.11-0.45
					c-0.01-0.15-0.08-0.28-0.2-0.41c-0.12-0.13-0.28-0.24-0.49-0.35c-0.78-0.38-1.57-0.79-2.34-1.2c0.23-0.35,0.46-0.71,0.69-1.06
					c0.77,0.4,1.53,0.8,2.3,1.18c0.28,0.14,0.54,0.19,0.77,0.14c0.23-0.04,0.4-0.17,0.52-0.39c0.11-0.19,0.12-0.38,0.03-0.56
					c-0.09-0.18-0.28-0.34-0.55-0.48c-0.76-0.38-1.52-0.76-2.27-1.17c0.23-0.35,0.46-0.71,0.69-1.06c0.76,0.4,1.51,0.79,2.28,1.17
					c0.45,0.23,0.81,0.48,1.06,0.76c0.25,0.28,0.39,0.59,0.43,0.91c0.03,0.33-0.05,0.66-0.24,1c-0.14,0.24-0.3,0.42-0.52,0.54
					c-0.22,0.13-0.46,0.2-0.75,0.21c-0.29,0.02-0.59-0.04-0.92-0.14c0.3,0.19,0.54,0.4,0.7,0.64c0.16,0.24,0.24,0.48,0.25,0.74
					s-0.06,0.52-0.22,0.79l-0.01,0.01c-0.19,0.34-0.45,0.6-0.78,0.76c-0.32,0.16-0.7,0.22-1.13,0.18c-0.43-0.04-0.89-0.18-1.39-0.43
					c-0.86-0.43-1.7-0.86-2.56-1.3C13.52,141.73,13.75,141.37,13.97,141.02z"/>
				<path class="st8" d="M25.64,140.22c0.45,0.19,0.91,0.36,1.37,0.54c-0.99,2.07-1.97,4.15-2.96,6.23
					c-0.49-0.19-0.99-0.39-1.49-0.59C23.59,144.34,24.61,142.28,25.64,140.22z M24.92,143.02c0.87,0.35,1.75,0.69,2.62,1.01
					c0.14,0.06,0.29,0.07,0.43,0.05c0.14-0.02,0.26-0.08,0.38-0.17c0.11-0.09,0.19-0.21,0.27-0.35c0.06-0.15,0.09-0.29,0.08-0.42
					c-0.01-0.14-0.05-0.25-0.14-0.35c-0.08-0.1-0.2-0.18-0.34-0.23c-0.87-0.31-1.73-0.64-2.58-0.98c0.18-0.38,0.37-0.75,0.55-1.12
					c0.88,0.35,1.77,0.69,2.65,1.02c0.4,0.14,0.73,0.35,0.96,0.61c0.24,0.26,0.39,0.57,0.44,0.91c0.05,0.35,0,0.71-0.16,1.09
					s-0.38,0.68-0.68,0.9c-0.3,0.23-0.64,0.36-1.03,0.4c-0.39,0.05-0.8-0.01-1.22-0.16c-0.93-0.34-1.86-0.69-2.78-1.06
					C24.56,143.78,24.74,143.4,24.92,143.02z M26.07,144.58c0.55,0.13,1.09,0.25,1.63,0.37c0.25,1.22,0.55,2.45,0.86,3.68
					c-0.61-0.21-1.21-0.42-1.82-0.63C26.5,146.86,26.27,145.72,26.07,144.58z"/>
				<path class="st8" d="M35.2,143.53c0.47,0.13,0.94,0.27,1.41,0.39c-0.72,2.16-1.44,4.32-2.17,6.48
					c-0.51-0.14-1.02-0.28-1.53-0.42C33.68,147.83,34.44,145.69,35.2,143.53z M35.71,143.68c1.5,0.43,3.02,0.81,4.54,1.16
					c-0.11,0.39-0.23,0.79-0.34,1.19c-1.55-0.35-3.08-0.75-4.61-1.18C35.43,144.46,35.57,144.07,35.71,143.68z M34.78,146.34
					c1.36,0.39,2.73,0.74,4.1,1.06c-0.11,0.39-0.23,0.8-0.35,1.19c-1.39-0.33-2.78-0.69-4.16-1.08
					C34.51,147.13,34.65,146.74,34.78,146.34z M33.87,148.97c1.61,0.46,3.22,0.87,4.84,1.24c-0.11,0.39-0.23,0.79-0.34,1.19
					c-1.65-0.38-3.29-0.8-4.91-1.25C33.6,149.75,33.74,149.36,33.87,148.97z"/>
				<path class="st8" d="M47.59,146.24c0.38,0.06,0.78,0.12,1.17,0.17c0.24,1.55,0.49,3.11,0.77,4.67c0.58-1.45,1.15-2.9,1.69-4.35
					c0.5,0.06,1,0.11,1.5,0.16c-0.87,2.18-1.79,4.36-2.77,6.52c-0.5-0.06-0.99-0.12-1.48-0.18c-0.24-1.62-0.45-3.25-0.64-4.87
					c-0.77,1.49-1.57,2.96-2.39,4.44c-0.49-0.08-0.99-0.16-1.48-0.24c-0.15-2.33-0.27-4.65-0.32-6.97c0.49,0.1,0.99,0.19,1.49,0.28
					c0.01,1.53,0.02,3.07,0.06,4.61C46.02,149.06,46.82,147.65,47.59,146.24z"/>
				<path class="st8" d="M57.56,154.01c-0.54-0.03-1.09-0.06-1.64-0.08c0.17-2.25,0.36-4.5,0.53-6.75c0.51,0.03,1.01,0.06,1.52,0.08
					C57.82,149.51,57.7,151.76,57.56,154.01z"/>
				<path class="st8" d="M62.5,147.35c0.6,0,1.19-0.01,1.79-0.02c0.99,1.71,2.04,3.4,3.16,5.08c-0.05,0.04-0.08,0.09-0.13,0.13
					c-0.09-1.77-0.18-3.53-0.27-5.3c0.47-0.02,0.93-0.04,1.4-0.07c0.15,2.25,0.3,4.5,0.46,6.75c-0.65,0.04-1.3,0.07-1.94,0.1
					c-1.12-1.66-2.17-3.33-3.17-5.01c0.05-0.04,0.08-0.08,0.13-0.13c0.02,1.74,0.04,3.48,0.06,5.22c-0.51,0.01-1.01,0.01-1.52,0.01
					C62.48,151.86,62.49,149.61,62.5,147.35z"/>
				<path class="st8" d="M79.13,148.97c0.09,0.43,0.17,0.87,0.26,1.3c0.1,0.49,0.06,0.95-0.11,1.36c-0.18,0.41-0.47,0.77-0.9,1.04
					c-0.42,0.27-0.93,0.46-1.54,0.54c-0.61,0.09-1.16,0.05-1.65-0.09c-0.49-0.14-0.89-0.37-1.18-0.7c-0.3-0.33-0.47-0.73-0.53-1.2
					c-0.09-0.66-0.16-1.32-0.25-1.99c-0.06-0.5,0-0.95,0.19-1.36c0.19-0.4,0.48-0.73,0.88-1c0.39-0.26,0.88-0.42,1.43-0.5
					c0.46-0.07,0.9-0.04,1.31,0.07c0.41,0.11,0.78,0.29,1.1,0.55c0.31,0.26,0.56,0.57,0.73,0.95c-0.53,0.08-1.06,0.17-1.6,0.24
					c-0.08-0.14-0.19-0.24-0.33-0.33c-0.15-0.08-0.3-0.14-0.47-0.17c-0.17-0.03-0.35-0.03-0.53-0.01c-0.27,0.03-0.48,0.12-0.67,0.24
					c-0.19,0.13-0.32,0.29-0.41,0.48c-0.08,0.19-0.11,0.41-0.08,0.64c0.1,0.66,0.19,1.32,0.28,1.98c0.03,0.21,0.12,0.39,0.25,0.53
					c0.14,0.14,0.32,0.25,0.55,0.3c0.23,0.05,0.48,0.07,0.76,0.03c0.28-0.03,0.51-0.12,0.71-0.25c0.2-0.13,0.33-0.29,0.42-0.48
					c0.08-0.19,0.1-0.41,0.06-0.65c-0.01-0.03-0.01-0.08-0.02-0.11c-0.41,0.06-0.82,0.12-1.23,0.17c-0.07-0.41-0.13-0.81-0.2-1.22
					C77.29,149.25,78.21,149.12,79.13,148.97z"/>
				<path class="st8" d="M97.98,147.79c-0.51-0.03-0.95-0.19-1.31-0.46c-0.37-0.28-0.65-0.67-0.85-1.16
					c-0.24-0.58-0.47-1.16-0.71-1.74c-0.2-0.5-0.27-0.96-0.2-1.39c0.06-0.43,0.26-0.8,0.58-1.13c0.32-0.33,0.76-0.59,1.31-0.8
					c0.46-0.17,0.91-0.24,1.35-0.21c0.44,0.03,0.85,0.16,1.24,0.38c0.39,0.22,0.74,0.54,1.06,0.96c-0.48,0.2-0.97,0.39-1.45,0.58
					c-0.15-0.19-0.31-0.33-0.5-0.43c-0.18-0.1-0.37-0.16-0.57-0.17c-0.2-0.01-0.39,0.01-0.6,0.09c-0.26,0.09-0.46,0.22-0.61,0.38
					c-0.15,0.16-0.23,0.34-0.25,0.55s0.02,0.44,0.12,0.68c0.25,0.57,0.49,1.15,0.74,1.73c0.1,0.25,0.24,0.44,0.42,0.57
					c0.18,0.13,0.38,0.21,0.62,0.23c0.23,0.02,0.49-0.02,0.76-0.13c0.22-0.08,0.4-0.19,0.52-0.34c0.14-0.14,0.23-0.31,0.28-0.5
					c0.05-0.19,0.06-0.4,0.01-0.63c0.5-0.2,1-0.39,1.49-0.6c0.12,0.49,0.13,0.94,0.04,1.37c-0.1,0.42-0.3,0.79-0.61,1.11
					s-0.71,0.57-1.21,0.76C99.04,147.72,98.48,147.82,97.98,147.79z"/>
				<path class="st8" d="M107.76,143.72c-0.52,0.01-0.99-0.09-1.41-0.31c-0.42-0.23-0.74-0.57-0.99-1.01
					c-0.31-0.57-0.62-1.14-0.95-1.71c-0.24-0.44-0.35-0.88-0.31-1.32c0.04-0.43,0.2-0.84,0.48-1.21s0.69-0.68,1.19-0.93
					c0.51-0.25,1.01-0.38,1.51-0.41c0.5-0.02,0.96,0.08,1.37,0.29c0.42,0.21,0.77,0.53,1.05,0.96c0.35,0.55,0.71,1.1,1.06,1.65
					c0.28,0.43,0.41,0.86,0.39,1.31s-0.18,0.86-0.48,1.26c-0.3,0.39-0.73,0.73-1.29,1C108.83,143.56,108.29,143.71,107.76,143.72z
					 M109.3,141.7c0.14-0.19,0.21-0.38,0.22-0.59c0-0.21-0.05-0.41-0.18-0.62c-0.35-0.58-0.71-1.15-1.06-1.73
					c-0.13-0.2-0.29-0.36-0.48-0.46c-0.19-0.11-0.41-0.15-0.64-0.15c-0.24,0.01-0.48,0.07-0.71,0.19c-0.24,0.12-0.43,0.26-0.56,0.44
					c-0.14,0.18-0.21,0.37-0.21,0.57c-0.01,0.21,0.05,0.41,0.16,0.63c0.33,0.59,0.67,1.17,1,1.76c0.12,0.2,0.28,0.36,0.47,0.48
					c0.19,0.11,0.41,0.16,0.66,0.15c0.25-0.01,0.49-0.07,0.75-0.2C108.96,142.04,109.16,141.89,109.3,141.7z"/>
				<path class="st8" d="M115.28,138.52c0.45-0.27,0.9-0.55,1.35-0.82c0.26,0.35,0.53,0.7,0.78,1.05c-0.46,0.28-0.92,0.55-1.38,0.83
					C115.79,139.23,115.53,138.87,115.28,138.52z"/>
			</g>
		</g>
	</g>
	<rect x="59.35" y="85.67" class="st9" width="25.43" height="20.98"/>
	<text transform="matrix(1 0 0 1 59.3528 99.1362)" class="st8 st10 st11">x</text>
</g>
</svg>
